<?xml version="1.0" encoding="utf-8"?>
<!-- Generator: Adobe Illustrator 27.0.0, SVG Export Plug-In . SVG Version: 6.00 Build 0)  -->
<svg version="1.1" id="Layer_1" xmlns:sketch="http://www.bohemiancoding.com/sketch/ns"
	 xmlns="http://www.w3.org/2000/svg" xmlns:xlink="http://www.w3.org/1999/xlink" x="0px" y="0px" viewBox="0 0 400 201"
	 style="enable-background:new 0 0 400 201;" xml:space="preserve">
<style type="text/css">
	.st0{fill-rule:evenodd;clip-rule:evenodd;fill:#FFFFFF;}
	.st1{fill-rule:evenodd;clip-rule:evenodd;fill:#00F2E6;}
	.st2{fill-rule:evenodd;clip-rule:evenodd;fill:#00B9F1;}
	.st3{fill-rule:evenodd;clip-rule:evenodd;fill:#D63AFF;}
	.st4{fill-rule:evenodd;clip-rule:evenodd;fill:#FB015B;}
	.st5{fill-rule:evenodd;clip-rule:evenodd;}
</style>
<path class="st0" d="M107.8,77.2l-0.1-26.9h-15l0.1,26.9l7.5,10.3L107.8,77.2z"/>
<path class="st0" d="M92.8,123.3v27h15v-27l-7.5-10.3L92.8,123.3z"/>
<path class="st1" d="M107.8,123.3l15.8,21.8l12.1-8.8l-15.8-21.8l-12.1-3.9V123.3z"/>
<path class="st1" d="M92.8,77.2L76.9,55.4l-12.1,8.8L80.6,86l12.2,3.9V77.2z"/>
<path class="st2" d="M80.6,86L55,77.7l-4.6,14.2l25.6,8.4l12.1-4L80.6,86z"/>
<path class="st2" d="M112.4,104.2l7.5,10.3l25.6,8.3l4.6-14.2l-25.6-8.3L112.4,104.2z"/>
<path class="st3" d="M124.5,100.3l25.6-8.4l-4.6-14.2L119.9,86l-7.5,10.3L124.5,100.3z"/>
<path class="st3" d="M76,100.3l-25.6,8.3l4.6,14.2l25.6-8.3l7.5-10.3L76,100.3z"/>
<path class="st4" d="M80.6,114.5l-15.8,21.8l12.1,8.8l15.9-21.8v-12.7L80.6,114.5z"/>
<path class="st4" d="M119.9,86l15.8-21.8l-12.1-8.8l-15.8,21.8v12.7L119.9,86z"/>
<path class="st5" d="M206.1,75.8v35c0,7.7-6.3,14-14,14v-7c3.9,0,7-3.1,7-7v-35H206.1L206.1,75.8z M333.9,82.8h15.8v-7h-38.5v7h15.7
	v42h7V82.8L333.9,82.8z M290.1,75.8v35c0,3.9-3.1,7-7,7s-7-3.1-7-7v-21c0-7.7-6.3-14-14-14c-7.7,0-14,6.3-14,14v21c0,3.9-3.1,7-7,7
	c-3.9,0-7-3.1-7-7v-35h-7v35c0,7.7,6.3,14,14,14c7.7,0,14-6.3,14-14v-21c0-3.9,3.1-7,7-7s7,3.1,7,7l0,0v21c0,7.7,6.3,14,14,14
	c7.7,0,14-6.3,14-14v-35H290.1L290.1,75.8z"/>
</svg>
